<svg version="1.1" id="Layer_1" xmlns="http://www.w3.org/2000/svg" x="0" y="0" viewBox="0 0 2249.3 2249.1" style="enable-background:new 0 0 2249.3 2249.1" xml:space="preserve"><style type="text/css">.st1{fill:#231f20}</style><circle cx="1124.6" cy="1124.7" r="1027.2" style="fill:#ebebeb"/><path class="st1" d="M1044.2 1606.1c-128 .1-248.2-61.3-323.2-165.1-3.3-4.6-2.3-11 2.3-14.3s11-2.3 14.3 2.3c71.1 98.5 185.2 156.8 306.6 156.7 208.6 0 378.4-169.7 378.4-378.4 0-30.2-3.6-60.3-10.7-89.6-1.2-5.5 2.2-11 7.7-12.2 5.4-1.2 10.8 2 12.1 7.4 7.5 30.9 11.3 62.6 11.3 94.5-.1 219.8-178.9 398.7-398.8 398.7zM706.6 1410.1c-3.7 0-7.1-2-8.9-5.1-34.3-60.2-52.3-128.3-52.3-197.6 0-219.9 178.8-398.8 398.7-398.8 34.4 0 68.6 4.4 101.8 13.1 5.4 1.4 8.7 7 7.3 12.5-1.4 5.4-7 8.7-12.5 7.3-31.5-8.3-64-12.5-96.6-12.4-208.6 0-378.4 169.7-378.4 378.4 0 65.7 17.1 130.4 49.6 187.5 2.8 4.9 1.1 11.1-3.8 13.9-1.4.7-3.1 1.1-4.9 1.2z"/><path class="st1" d="M1044.2 1515c-169.7 0-307.7-138-307.7-307.7s138-307.7 307.7-307.7c33.1 0 66 5.3 97.5 15.7l-6.5 19.4c-29.3-9.8-60.1-14.7-91-14.7-158.4 0-287.3 128.9-287.3 287.3s128.9 287.3 287.3 287.3 287.3-128.9 287.3-287.3c0-28.7-4.3-57.3-12.7-84.8l19.5-6c9.1 29.4 13.6 60 13.6 90.8 0 169.7-138.1 307.7-307.7 307.7z"/><path class="st1" d="M1046.9 1025.7c-5.6 0-10.2-4.6-10.2-10.2v-67.8c0-5.6 4.6-10.2 10.2-10.2s10.2 4.6 10.2 10.2v67.8c0 5.6-4.5 10.2-10.2 10.2z"/><path class="st1" d="M1046.9 1025.7c-5.6 0-10.2-4.6-10.2-10.2v-67.8c0-5.6 4.6-10.2 10.2-10.2s10.2 4.6 10.2 10.2v67.8c0 5.6-4.5 10.2-10.2 10.2zM942.5 1057.5c-3.5 0-6.8-1.8-8.6-4.8l-36.2-57.4c-3-4.8-1.6-11.1 3.2-14.1 4.8-3 11.1-1.6 14.1 3.2l36.1 57.3c3 4.8 1.6 11.1-3.2 14.1-1.7 1.1-3.6 1.7-5.4 1.7zM875.8 1131.2c-1.7 0-3.3-.4-4.8-1.2l-59.7-32.1c-5-2.7-6.8-8.9-4.2-13.8 2.7-5 8.9-6.8 13.8-4.2l59.6 32.2c5 2.7 6.8 8.9 4.1 13.8-1.6 3.2-5.1 5.3-8.8 5.3zM786.4 1229.6c-5.6.1-10.2-4.5-10.3-10.1-.1-5.6 4.5-10.2 10.1-10.3l67.8-1.4c5.6-.1 10.3 4.4 10.4 10s-4.4 10.3-10 10.4l-67.8 1.4h-.2zM824.6 1357.8c-5.6 0-10.2-4.5-10.3-10.1 0-3.6 1.9-7 5-8.9l58.3-34.5c4.8-3 11.1-1.5 14 3.3 3 4.8 1.5 11.1-3.3 14-.1.1-.3.2-.4.2l-58.3 34.5c-1.3 1-3.1 1.5-5 1.5zM921 1450.6c-5.6 0-10.2-4.6-10.2-10.2 0-1.8.5-3.5 1.4-5.1l33.8-58.8c2.8-4.9 9.1-6.6 13.9-3.8 4.9 2.8 6.6 9.1 3.8 13.9l-33.8 58.8c-1.9 3.3-5.3 5.2-8.9 5.2zM1050.6 1484c-5.7 0-10.2-4.6-10.2-10.3l.5-67.8c0-5.6 4.6-10.1 10.2-10.1h.1c5.6 0 10.2 4.6 10.1 10.3l-.5 67.8c0 5.6-4.6 10.1-10.2 10.1zM1179.9 1449.3c-3.7 0-7.1-2-8.9-5.2l-32.9-59.2c-2.7-4.9-1-11.1 4-13.9s11.1-1 13.9 4l32.9 59.2c2.7 4.9 1 11.1-4 13.9-1.6.8-3.3 1.2-5 1.2zM1275.3 1355.6c-1.9 0-3.7-.5-5.3-1.5l-57.8-35.4c-4.8-2.9-6.3-9.2-3.4-14 2.9-4.8 9.2-6.3 14-3.4l57.8 35.3c4.9 2.9 6.5 9.1 3.6 14-1.8 3.1-5.2 5-8.9 5zM1312.3 1226.9h-.4l-67.7-2.4c-5.6-.2-10-4.9-9.8-10.5.2-5.6 4.9-10 10.5-9.8l67.7 2.3c5.6.1 10.1 4.7 10 10.4 0 5.6-4.7 10.1-10.3 10zM1221 1128c-5.6 0-10.2-4.6-10.2-10.2 0-3.8 2.1-7.3 5.5-9l41.3-21.5c5-2.6 11.2-.7 13.8 4.3 2.6 5 .7 11.2-4.3 13.8l-41.3 21.5c-1.5.7-3.1 1.1-4.8 1.1zM1153 1055.6c-5.6 0-10.2-4.6-10.2-10.2 0-2 .6-3.9 1.7-5.6l19.7-30.3c2.9-4.8 9.2-6.4 14-3.5 4.8 2.9 6.4 9.2 3.5 14-.1.2-.3.4-.4.6l-19.7 30.3c-1.8 2.9-5.1 4.7-8.6 4.7z"/><path class="st1" d="m1088.4 1201.5-20.4-.1.8-139.2c0-13.1-10.7-23.8-23.8-23.8s-23.8 10.7-23.8 23.8l-.8 139.2-20.4-.1.8-139.2c.4-24.4 20.5-43.9 44.9-43.5 23.9.4 43.2 19.7 43.5 43.6l-.8 139.3z"/><path class="st1" d="M1149.4 1312.3c-7.7 0-15.3-2.1-22-5.9l-99.9-57.7 10.2-17.7 99.9 57.7c11.4 6.5 26 2.6 32.5-8.8s2.6-25.9-8.7-32.5l-99.9-57.7 10.2-17.7 99.9 57.7c21.1 12.2 28.4 39.3 16.2 60.4-5.9 10.1-15.5 17.6-26.8 20.6-3.8 1.1-7.7 1.6-11.6 1.6z"/><path class="st1" d="M1044.2 1252.4c-24.9 0-45-20.1-45-45s20.1-45 45-45c24.8 0 45 20.1 45 45 0 24.8-20.2 44.9-45 45zm0-69.7c-13.6 0-24.6 11-24.6 24.6 0 13.6 11 24.6 24.6 24.6 13.6 0 24.6-11 24.6-24.6 0-13.6-11-24.6-24.6-24.6zM1367.8 1133.1c-133.3 0-241.7-108.4-241.7-241.7s108.4-241.7 241.7-241.7 241.7 108.4 241.7 241.7c0 75.5-34.4 145.4-94.3 191.5-4.5 3.4-10.9 2.6-14.3-1.8-3.4-4.5-2.6-10.9 1.8-14.3 54.6-41.8 86.5-106.6 86.3-175.4 0-122-99.3-221.3-221.3-221.3s-221.3 99.3-221.3 221.3 99.3 221.3 221.3 221.3c35.1.1 69.7-8.2 100.9-24.3 5-2.6 11.2-.6 13.7 4.4 2.6 5 .6 11.2-4.4 13.7-33.9 17.6-71.7 26.7-110.1 26.6z"/><path class="st1" d="M1344.6 992.6H1223v-21.3l78-83.4c2.9-3 5.7-6.3 8.5-9.8 2.7-3.5 5.2-7.1 7.4-11 2.2-3.8 3.9-7.9 5.1-12.1 1.3-4.3 1.9-8.8 1.9-13.2.1-5.5-1-10.9-3-15.9-1.9-4.6-4.6-8.7-8.2-12.1-3.5-3.3-7.6-5.9-12-7.6-4.6-1.8-9.5-2.7-14.4-2.7-10.2 0-18.8 3.4-25.8 10.1s-11.5 15.3-13.5 25.7l-19.1-4c1.2-6.9 3.6-13.5 7.1-19.6 6.7-11.9 17.5-21.1 30.3-25.9 6.7-2.5 13.8-3.8 21-3.7 7.5 0 14.9 1.2 21.9 3.5 6.7 2.2 12.8 5.8 18.1 10.5 5.3 4.9 9.5 10.8 12.4 17.4 3.1 6.9 4.7 14.9 4.7 24 .1 6.1-.8 12.1-2.6 17.9-1.7 5.4-3.9 10.7-6.7 15.6-2.8 5-6.1 9.7-9.8 14.1-3.8 4.5-7.7 8.9-11.8 13.2l-68.6 72h100.9v18.3zM1482.6 925.8h28V944h-28v48.6h-18.9V944h-87.1v-19.9l80.7-132.9h25.3v134.6zm-18.8-111.6h-.5l-66.4 111.5h67l-.1-111.5z"/></svg>