<svg version="1.1" id="Layer_1" xmlns="http://www.w3.org/2000/svg" x="0" y="0" viewBox="0 0 2249.3 2249.4" style="enable-background:new 0 0 2249.3 2249.4" xml:space="preserve"><style type="text/css">.st1{fill:#231f20}</style><circle cx="1124.6" cy="1124.7" r="1027.2" style="fill:#ebebeb"/><path class="st1" d="M1510.6 904.9c-1.3 13.4-3.2 35.1-5.8 56.7-2.7 22.9 2.1 43.2 17.8 60.5 12.1 13.2 24.6 26.1 35.5 40.3 8.2 10.9 15.2 22.7 20.9 35.1 12.4 26.5 6 51.8-9.2 74.7-9.4 14.4-20.5 27.6-32.9 39.4-30.3 28.3-37.3 62.2-30.4 102.1 3.6 21.2 3.3 43.4 1.8 64.9-1.9 28.8-20.2 46.7-46.1 55.2-23.6 7.7-48 13.1-72.4 18.1-20.4 4.1-34.9 15.6-45.3 32.7-11.2 18.6-20.8 38.1-31.8 56.8-20.8 35-47.3 53.1-89.8 40.2-20.1-6.1-39.5-15.1-58.4-24.5-26.8-13.3-52.3-13.2-79.2-.2-21.3 10.3-43.3 20.6-66.1 26.2-40.3 10-66.3-11.5-84-42.7-10.7-18.9-20.8-38.1-31.8-56.8-13.7-23.2-36.1-31.5-61.1-35.8-16-2.9-31.7-6.8-47.2-11.6-40.5-12.6-57.4-35.6-57-78.7.1-19.1 1.8-38.2 5.1-57.1 5.9-31.6-2.5-57.9-23.8-80.9-12.2-13.1-24.8-26-35.3-40.4-30.5-41.6-24.3-72.9.1-108.3 10.3-14.9 23.3-28.3 36.2-41.2 20.2-20.2 27.3-44.2 23.8-72.1-2-16.7-4.4-33.4-5.7-50.1-3.9-52.2 13.3-84.8 64.7-96.9 20.2-4.8 40.5-8.8 60.7-13.6 16.3-3.9 29.5-11.8 38.2-27.6 12.9-23.7 27.5-46.6 41.3-69.8 17.9-30 46.8-42.9 80.3-31.9 23.3 7.7 45.8 18.8 67.6 30.5 19.8 10.7 48.1 8.7 68.8-2.8 25.3-14 51.4-28.2 80.9-31.2 26.4-2.6 47.7 9.3 61.9 31.1 16.8 25.8 31.1 53.2 46.8 79.6 7.8 13 20.8 18.6 34.6 22 20.1 4.9 40.7 8.3 60.7 13.6 48.8 12.8 66 35.9 65.6 94.5zm-34.9-10.2c-1.6-13.3-.6-27.9-14.2-35.6-10.9-6.3-22.4-11.5-34.4-15.5-11.8-3.8-24.3-5.3-36.5-7.4-40-7.1-69-27.7-86.1-66.2-8-18-19.3-34.6-30.4-51-9.7-14.3-23.7-20.2-40.7-13.8-15.8 6-32 11.8-46.9 19.8-42.1 22.7-83.4 22.6-125.3-.4-13.7-7.3-27.9-13.5-42.6-18.5-21.3-7.4-33.3-3.6-46.2 15.1-10.3 15-20.4 30.6-27.7 47.2-17.6 40-47.8 61-89.7 68.2-20.8 3.6-42.3 5.3-61.2 17.3-11.1 7-19.9 14.8-19.6 28.5.5 21.3 1.3 42.8 3.6 63.9 4.2 38 1.1 73.4-27.4 102.2-6.2 6.2-12.2 12.7-17.7 19.5-9.1 11.2-18.1 22.4-26.4 34.2-10.2 14.5-10.9 29.9-.7 44.9 7 10.3 14.5 20.4 22.3 30 6.7 8.3 14.3 15.9 21.5 23.7 21 23 32 49.8 29.6 81.4-1.6 21.7-4.3 43.4-5.5 65.1-2.3 41 8.1 49.5 38.6 57.6 16 4.2 32.4 7.2 48.6 10.4 33 6.7 59.5 21.5 76 53.3 12.6 24.2 28 47 43.5 69.6 3.9 5.6 12.8 10.8 19.3 10.8 10.9-.1 22.4-3.3 32.6-7.6 20.4-8.5 39.6-19.8 60.3-27.5 12.4-4.6 25.6-6.6 38.7-5.8 29.2 2.2 54.2 17.9 80.4 29.4 10.4 4.6 21 9.4 32.1 11.7 9.8 2.1 19.1-1.3 25.1-11.2 14.4-23.7 30.5-46.5 43.6-70.9 14.9-27.8 37.5-42.9 66.9-49.7 22.8-5.3 45.6-10.1 68.2-16 16.8-4.4 26.7-16.4 26.6-34-.1-21.3-1.4-42.6-3.8-63.8-4.7-40.5 1.9-76.8 31.9-106.5 10.3-10.2 20.8-20.4 29.1-32.2 21.7-30.6 28-43.5.3-76.8-10-11.9-19.6-24.2-30.3-35.5-24-25.2-35.4-54.5-31.9-89.6 2.3-22.7 4.3-45.6 6.4-68.3z"/><path class="st1" d="M859.1 1126c.6-64.8 20.9-122.5 64.1-173.1 27.4-32.1 61.2-54 99.6-71.5 61.8-28.1 125-28.6 187.8-7 40.1 13.8 77 35.3 105.7 66.6 51 55.6 77 120.4 73.7 195.4-2.4 54.5-20.3 103.4-53.4 147.8-21.7 29-48.8 51.2-80.1 69.5-78.4 46-159.8 47.1-241.8 12.1-36.3-15.4-68.3-39.4-93.2-70-40.4-49.7-62.9-105.9-62.4-169.8zm265.8 228.9c129.2-.2 232.5-102.3 232.4-229.9-.2-125.3-103-233.1-237.1-230.8-126.2 2.2-228.1 105.1-228 231.2 0 127.5 103.8 229.7 232.7 229.5z"/><path class="st1" d="M1097.2 1178.8c11.5-12.8 21.7-24.4 32-35.8 4.8-5.3 10-10.4 14.9-15.6 25.9-27.5 51.6-55.2 77.8-82.5 3-3.1 7.8-5.8 12-6.1 9.2-.6 14.5 10.3 9.7 18.6-1 1.6-2.2 3-3.5 4.4-17 18.3-34 36.7-51 55-24.3 26.1-48.7 52.1-73 78.2-3.2 3.5-5.8 7.7-9.2 11-6.3 6.1-12.6 6.2-18.6-.2-19.3-20.8-38.2-42-57.4-63-7-7.7-14.4-15-21.5-22.6-6.5-6.9-7-14.5-1.5-20 5.5-5.4 12.1-5 18.6 1.9 21.7 23 43.4 46.1 64.9 69.3 1.7 1.8 3.2 4.1 5.8 7.4z"/><path class="st1" d="M1097.5 1216.1h-.4c-4.6-.1-9-2.3-12.9-6.6-11.5-12.4-23.1-25.2-34.2-37.5-7.7-8.5-15.5-17-23.2-25.5-4-4.4-8.2-8.7-12.3-12.9-3.1-3.2-6.2-6.4-9.2-9.6-8.6-9.1-9.1-20-1.4-27.7 3.1-3.4 7.6-5.3 12.2-5.3 3.5.1 8.7 1.4 14.3 7.3 19.7 20.9 39.6 42.2 58.9 62.8l6.1 6.5c.8.8 1.5 1.7 2.2 2.6l5.5-6.1c7.6-8.5 14.8-16.6 22.1-24.7 3-3.2 6-6.4 9-9.5 2-2.1 4-4.1 6-6.2 6.7-7.1 13.4-14.2 20.1-21.4 18.9-20.1 38.3-40.9 57.7-61.1 4.2-4.4 10.3-7.4 15.6-7.8 5.9-.4 11.6 2.5 14.7 7.6 3.6 5.9 3.7 13.3.2 19.2-1.2 1.9-2.6 3.7-4.2 5.3l-7.2 7.8c-14.6 15.8-29.2 31.5-43.8 47.2-10.9 11.7-21.8 23.3-32.7 34.9-13.5 14.4-26.9 28.8-40.4 43.2-1.3 1.4-2.5 2.9-3.8 4.6-1.7 2.3-3.6 4.5-5.7 6.6-4.2 4.2-8.7 6.3-13.2 6.3zm-81.7-114.2c-1.6.1-3.1.9-4.1 2.1-4.5 4.4-.9 9.6 1.6 12.3 3 3.2 6 6.3 9.1 9.5 4.1 4.3 8.4 8.7 12.5 13.1 7.8 8.5 15.5 17 23.2 25.5 11.2 12.3 22.7 25 34.2 37.4 1.3 1.4 3.2 3 5.1 3.1 2.1.1 4.1-1.6 5.6-3 1.6-1.7 3.2-3.5 4.6-5.4 1.4-1.8 2.8-3.6 4.4-5.4 13.4-14.4 26.9-28.9 40.4-43.2 10.9-11.6 21.8-23.3 32.7-34.9 14.7-15.7 29.3-31.4 43.8-47.2l7.2-7.8c1-1 2-2.2 2.8-3.4 1.4-2.4 1.4-5.4 0-7.8-.9-1.6-2.7-2.6-4.5-2.5-2.5.2-6.1 2.1-8.4 4.4-19.3 20.2-38.8 41-57.6 61.1l-20.1 21.4c-2 2.1-4 4.2-6.1 6.3-2.9 3-5.9 6.1-8.7 9.2-7.2 8-14.4 16-22 24.6l-14.4 16.1-4.1-5.2c-.9-1.2-1.7-2.2-2.4-3.2-1-1.4-2-2.7-3.2-4l-6.1-6.5c-19.2-20.6-39.1-41.9-58.8-62.7-2.3-2.4-4.6-3.8-6.5-3.8l-.2-.1z"/></svg>